<svg width="512" height="512" viewBox="0 0 512 512" fill="none" xmlns="http://www.w3.org/2000/svg">
  <defs>
    <linearGradient id="g" x1="96" y1="68" x2="416" y2="440" gradientUnits="userSpaceOnUse">
      <stop stop-color="#3B5BDB"/>
      <stop offset="1" stop-color="#79C6FF"/>
    </linearGradient>
    <filter id="shadow" x="0" y="0" width="512" height="512" filterUnits="userSpaceOnUse">
      <feGaussianBlur stdDeviation="22"/>
    </filter>
  </defs>
  <rect width="512" height="512" rx="120" fill="#050814"/>
  <circle cx="168" cy="152" r="100" fill="#3B5BDB" fill-opacity="0.22" filter="url(#shadow)"/>
  <circle cx="346" cy="344" r="120" fill="#79C6FF" fill-opacity="0.18" filter="url(#shadow)"/>
  <rect x="78" y="78" width="356" height="356" rx="92" fill="url(#g)" fill-opacity="0.96"/>
  <path d="M154 182C154 161.013 171.013 144 192 144H320C340.987 144 358 161.013 358 182V330C358 350.987 340.987 368 320 368H192C171.013 368 154 350.987 154 330V182Z" fill="white" fill-opacity="0.12"/>
  <path d="M184 204H330V228H184V204ZM184 252H294V276H184V252ZM184 300H266V324H184V300Z" fill="white"/>
  <circle cx="328" cy="290" r="24" fill="#050814" fill-opacity="0.24"/>
  <path d="M319 290L326 297L339 282" stroke="white" stroke-width="7" stroke-linecap="round" stroke-linejoin="round"/>
</svg>
